<svg xmlns="http://www.w3.org/2000/svg" viewBox="0 0 136 43">
  <g fill="none">
    <path fill="#09B3AF" d="M3.694 43C1.657 43 0 41.025 0 38.598V4.402C0 1.975 1.657 0 3.694 0h128.612C134.342 0 136 1.975 136 4.402v34.196c0 2.427-1.657 4.402-3.694 4.402H3.694z"/>
    <g fill="#FFF" transform="translate(12.05 9)">
      <path d="M13.032 12.333H8V15h4.911c.29 0 .556-.133.774-.347.194-.213.315-.533.315-.933a1.717 1.717 0 0 0-.266-.96c-.194-.267-.412-.427-.702-.427zm.17-3.226c.217-.16.314-.507.314-.96 0-.4-.097-.694-.266-.88A.919.919 0 0 0 12.62 7H8v2.4h4.524c.242 0 .484-.133.677-.293z"/>
      <path d="M21.013 0H1.139A1.13 1.13 0 0 0 0 1.115v19.918c0 .608.506.988 1.114.988H4.05V26l3.645-3.953h13.317c.607 0 .987-.38.987-1.014V1.14c0-.608-.38-1.115-1.013-1.115L21.013 0zM17.67 16.142a3.061 3.061 0 0 1-1.089 1.115c-.48.304-1.012.583-1.62.71-.608.152-1.266.279-1.95.279H4.052V4.055h10.177c.506 0 .937.1 1.342.329.38.203.734.481 1.012.81a3.81 3.81 0 0 1 .861 2.459c0 .659-.177 1.292-.506 1.9a3.166 3.166 0 0 1-1.52 1.369c.81.228 1.444.634 1.925 1.216.455.609.683 1.394.683 2.382 0 .634-.126 1.166-.38 1.622h.026z"/>
    </g>
    <path fill="#FFF" d="M47.34 33v-2.642h1.47c.823 0 1.463-.193 1.92-.58.458-.388.687-.93.687-1.627 0-.68-.234-1.227-.701-1.64-.467-.414-1.098-.62-1.892-.62h-2.72V33h1.235zm1.484-3.633h-1.485v-2.48h1.519c.41.006.732.124.967.354.234.23.351.536.351.92 0 .39-.115.69-.346.896-.232.207-.567.31-1.006.31zM52.276 33l.576-1.655h2.754L56.187 33h1.29l-2.691-7.11h-1.109L50.992 33h1.284zm2.983-2.651H53.2l1.03-2.95 1.03 2.95zM59.517 33v-2.74h1.377L62.32 33h1.323v-.063l-1.597-2.964c.41-.173.73-.42.96-.74.23-.32.344-.719.344-1.194 0-.697-.223-1.229-.669-1.597-.446-.367-1.079-.551-1.9-.551h-2.5V33h1.236zm1.27-3.73h-1.27v-2.383h1.304c.43.006.753.114.969.322.217.208.325.503.325.884 0 .364-.117.652-.352.862-.234.21-.56.315-.976.315zm6.41 3.73v-6.113h2.218v-.996h-5.64v.996h2.197V33h1.226zm4.386 0v-5.044L74.75 33h1.236v-7.11H74.76v5.064l-3.178-5.063h-1.236V33h1.236zm10.512 0v-.986h-3.413v-2.188h2.92v-.976h-2.92v-1.963h3.379v-.996h-4.614V33h4.648zm2.241 0v-2.74h1.377L87.14 33h1.323v-.063l-1.596-2.964c.41-.173.73-.42.96-.74.229-.32.343-.719.343-1.194 0-.697-.223-1.229-.669-1.597-.445-.367-1.079-.551-1.899-.551h-2.5V33h1.235zm1.27-3.73h-1.27v-2.383h1.304c.43.006.753.114.97.322.216.208.324.503.324.884 0 .364-.117.652-.351.862-.235.21-.56.315-.977.315zm-36.453-8.21a7.093 7.093 0 0 1-2.263-.36A5.135 5.135 0 0 1 45 19.572l.989-1.714c.55.383 1.077.676 1.604.902.505.226 1.01.316 1.494.316.352 0 .638-.068.835-.203.198-.113.286-.316.286-.564a.643.643 0 0 0-.374-.587 5.613 5.613 0 0 0-1.296-.45L47 16.751c-.418-.18-.747-.36-1.011-.564a1.65 1.65 0 0 1-.571-.676 2.261 2.261 0 0 1-.176-.903 2.965 2.965 0 0 1 1.033-2.3c.307-.271.703-.474 1.142-.632.44-.158.923-.226 1.429-.226.68 0 1.318.09 1.911.271.594.203 1.165.541 1.714 1.038l-1.076 1.692a7.268 7.268 0 0 0-1.363-.79 2.875 2.875 0 0 0-1.186-.248c-.286 0-.55.045-.748.18-.22.113-.307.316-.307.587 0 .27.11.451.33.586.22.136.659.271 1.252.429.55.142 1.094.316 1.626.519.44.18.791.383 1.077.586a2.03 2.03 0 0 1 .791 1.76c0 .925-.33 1.646-1.01 2.188-.66.541-1.54.812-2.704.812zm10.878-.653c-.374.158-.813.316-1.297.45a5.42 5.42 0 0 1-1.472.227c-.352 0-.66-.046-.967-.136a2.18 2.18 0 0 1-.813-.451c-.22-.18-.395-.451-.527-.744-.132-.316-.22-.7-.22-1.15v-4.85h-1.143v-2.121h1.165V8.677h2.725v2.932h1.846v2.143h-1.846v3.88c0 .293.066.519.22.677.153.113.351.18.57.18.22 0 .44-.022.638-.112a2.78 2.78 0 0 0 .572-.226l.527 2.256h.022zm5.142.654a5.154 5.154 0 0 1-2.044-.384 4.37 4.37 0 0 1-2.46-2.594 5.317 5.317 0 0 1 0-3.654 4.37 4.37 0 0 1 2.46-2.594c.594-.248 1.275-.384 2.044-.384a4.554 4.554 0 0 1 3.56 1.467c.417.428.725.947.945 1.511a5.178 5.178 0 0 1 0 3.677 4.392 4.392 0 0 1-2.44 2.571 5.153 5.153 0 0 1-2.065.384zm-1.978-4.782c0 .722.176 1.308.55 1.737.395.45.879.676 1.45.676a1.783 1.783 0 0 0 1.428-.676 2.53 2.53 0 0 0 .418-.767c.11-.294.154-.632.154-.97 0-.745-.198-1.331-.572-1.76a1.783 1.783 0 0 0-1.428-.677 1.848 1.848 0 0 0-1.428.677 2.57 2.57 0 0 0-.44.767c-.099.32-.144.657-.132.993zm13.91-2.234c-.659 0-1.274.113-1.823.339a2.208 2.208 0 0 0-1.165.947v5.572H71.37v-9.271h2.527v1.85c.308-.632.703-1.128 1.209-1.467a2.69 2.69 0 0 1 1.538-.564h.286l.175.023v2.571zm1.209 8.234c.382.136.782.212 1.187.226.33 0 .593-.113.79-.339.177-.225.33-.676.484-1.263l-3.428-9.271h2.835l2.088 6.835 1.823-6.835h2.572l-3.45 10.76c-.542 1.827-2.356 2.925-4.176 2.526a3.315 3.315 0 0 1-.725-.225v-2.414zm14.855-1.218c-.681 0-1.296-.135-1.802-.451a3.228 3.228 0 0 1-1.23-1.24v1.533H87.74V8h2.77v5.143a3.257 3.257 0 0 1 2.944-1.692c.571 0 1.099.113 1.582.384.483.225.879.586 1.253 1.015a6.04 6.04 0 0 1 .79 5.324 4.999 4.999 0 0 1-.9 1.533 3.997 3.997 0 0 1-3.01 1.354zm-.769-2.369a2.092 2.092 0 0 0 1.978-1.443 2.857 2.857 0 0 0-.418-2.685 1.764 1.764 0 0 0-1.45-.722c-.418 0-.813.158-1.187.452a3.226 3.226 0 0 0-.835 1.173v1.94a2.15 2.15 0 0 0 1.934 1.263l-.022.022zM98.729 8h2.747v9.587c0 .722.285 1.06.879 1.06.313.001.623-.076.9-.225l.374 2.098c-.77.346-1.599.53-2.439.54-.791 0-1.406-.225-1.824-.63-.44-.452-.66-1.038-.66-1.85V8h.023zm10.086 13.06a5.154 5.154 0 0 1-2.043-.383 4.39 4.39 0 0 1-2.484-2.594 5.295 5.295 0 0 1 .923-5.188 4.73 4.73 0 0 1 1.539-1.06c.593-.248 1.274-.384 2.043-.384a4.554 4.554 0 0 1 3.56 1.467c.44.428.725.947.945 1.511a5.18 5.18 0 0 1-.923 5.188 4.215 4.215 0 0 1-1.538 1.06 5.154 5.154 0 0 1-2.044.384h.022zm-2-4.781c0 .722.176 1.308.55 1.737.396.45.879.676 1.45.676a1.805 1.805 0 0 0 1.429-.676 2.53 2.53 0 0 0 .417-.767c.11-.294.154-.632.154-.97 0-.745-.198-1.331-.571-1.76a1.783 1.783 0 0 0-1.429-.677 1.848 1.848 0 0 0-1.428.677 2.57 2.57 0 0 0-.44.767c-.11.316-.131.632-.131.993zm14.262 4.624l-2.351-3.745-.967 1.038v2.707h-2.747V8h2.747v7.467l3.055-3.835h2.922l-3.252 3.993L124 20.903h-2.923z"/>
  </g>
</svg>
