<svg fill="none" height="113" viewBox="0 0 581 113" width="581" xmlns="http://www.w3.org/2000/svg" xmlns:xlink="http://www.w3.org/1999/xlink"><linearGradient id="a" gradientUnits="userSpaceOnUse" x1="53.9738" x2="94.1635" y1="54.974" y2="71.8295"><stop offset="0" stop-color="#249361"/><stop offset="1" stop-color="#3ecf8e"/></linearGradient><linearGradient id="b" gradientUnits="userSpaceOnUse" x1="36.1558" x2="54.4844" y1="30.578" y2="65.0806"><stop offset="0"/><stop offset="1" stop-opacity="0"/></linearGradient><g fill="#fff"><path d="m151.397 66.7608c.599 5.6013 5.694 15.2034 20.48 15.2034 12.887 0 19.082-8.2018 19.082-16.2035 0-7.2017-4.896-13.103-14.586-15.1036l-6.994-1.5002c-2.697-.5001-4.495-2.0004-4.495-4.401 0-2.8007 2.797-4.901 6.294-4.901 5.594 0 7.692 3.7007 8.092 6.6015l11.089-2.5006c-.599-5.3012-5.295-14.2031-19.281-14.2031-10.59 0-18.382 7.3016-18.382 16.1034 0 6.9015 4.295 12.603 13.786 14.7033l6.494 1.5004c3.796.8001 5.295 2.6007 5.295 4.8011 0 2.6006-2.098 4.9011-6.494 4.9011-5.794 0-8.692-3.6009-8.991-7.5018z"/><path d="m233.421 80.4639h12.688c-.2-1.7004-.5-5.1011-.5-8.9021v-40.3089h-13.288v28.6063c0 5.7014-3.396 9.7022-9.29 9.7022-6.194 0-8.992-4.401-8.992-9.9022v-28.4063h-13.287v31.107c0 10.7023 6.793 19.4043 18.682 19.4043 5.194 0 10.891-2.0004 13.588-6.6015 0 2.0004.199 4.3009.399 5.3012z"/><path d="m273.076 99.4682v-23.8052c2.397 3.3006 7.393 6.0014 14.187 6.0014 13.886 0 23.176-11.0027 23.176-25.906 0-14.6031-8.291-25.6056-22.677-25.6056-7.392 0-12.887 3.3006-15.085 7.1016v-6.0014h-12.887v68.2152zm24.276-43.6097c0 8.8021-5.394 13.9031-12.188 13.9031-6.792 0-12.287-5.2011-12.287-13.9031 0-8.7019 5.495-13.8031 12.287-13.8031 6.794 0 12.188 5.1012 12.188 13.8031z"/><path d="m317.964 67.0609c0 7.7018 6.393 14.8034 16.884 14.8034 7.291 0 11.987-3.4009 14.484-7.3018 0 1.9005.2 4.601.5 5.9014h12.188c-.3-1.7004-.598-5.2012-.598-7.8017v-24.2055c0-9.9022-5.795-18.704-21.379-18.704-13.188 0-20.282 8.5017-21.08 16.2035l11.788 2.5005c.4-4.3009 3.597-8.0017 9.39-8.0017 5.596 0 8.293 2.9006 8.293 6.4014 0 1.7004-.898 3.1008-3.696 3.5008l-12.088 1.8004c-8.192 1.2003-14.686 6.1013-14.686 14.9033zm19.68 4.9011c-4.295 0-6.394-2.8006-6.394-5.7012 0-3.8009 2.697-5.7014 6.095-6.2014l11.089-1.7004v2.2004c0 8.7021-5.195 11.4026-10.79 11.4026z"/><path d="m387.703 80.4641v-6.0014c2.596 4.201 7.791 7.2017 14.585 7.2017 13.988 0 23.179-11.1026 23.179-26.0059 0-14.6033-8.293-25.7057-22.679-25.7057-7.294 0-12.688 3.2007-14.886 6.7013v-28.60625h-13.087v72.41625zm24.475-24.7057c0 9.0021-5.394 14.0032-12.188 14.0032-6.693 0-12.287-5.101-12.287-14.0032 0-9.002 5.594-13.903 12.287-13.903 6.794 0 12.188 4.901 12.188 13.903z"/><path d="m432.99 67.0609c0 7.7018 6.393 14.8034 16.883 14.8034 7.292 0 11.989-3.4009 14.485-7.3018 0 1.9005.201 4.601.5 5.9014h12.188c-.298-1.7004-.598-5.2012-.598-7.8017v-24.2055c0-9.9022-5.795-18.704-21.38-18.704-13.187 0-20.28 8.5017-21.079 16.2035l11.787 2.5005c.401-4.3009 3.598-8.0017 9.391-8.0017 5.596 0 8.293 2.9006 8.293 6.4014 0 1.7004-.899 3.1008-3.697 3.5008l-12.087 1.8004c-8.192 1.2003-14.686 6.1013-14.686 14.9033zm19.681 4.9011c-4.296 0-6.395-2.8006-6.395-5.7012 0-3.8009 2.697-5.7014 6.095-6.2014l11.089-1.7004v2.2004c0 8.7021-5.195 11.4026-10.789 11.4026z"/><path d="m485.645 66.7608c.598 5.6013 5.694 15.2034 20.479 15.2034 12.888 0 19.081-8.2018 19.081-16.2035 0-7.2017-4.894-13.103-14.585-15.1036l-6.994-1.5002c-2.697-.5001-4.494-2.0004-4.494-4.401 0-2.8007 2.796-4.901 6.293-4.901 5.596 0 7.693 3.7007 8.094 6.6015l11.088-2.5006c-.6-5.3012-5.295-14.2031-19.281-14.2031-10.591 0-18.382 7.3016-18.382 16.1034 0 6.9015 4.294 12.603 13.786 14.7033l6.494 1.5004c3.797.8001 5.295 2.6007 5.295 4.8011 0 2.6006-2.098 4.9011-6.494 4.9011-5.795 0-8.691-3.6009-8.991-7.5018z"/><path d="m545.385 50.2571c.3-4.5009 4.097-9.7022 10.99-9.7022 7.592 0 10.79 4.8012 10.99 9.7022zm23.279 12.803c-1.599 4.4008-4.996 7.5016-11.19 7.5016-6.594 0-12.089-4.7011-12.387-11.2024h35.165c0-.2003.199-2.2006.199-4.1011 0-15.8035-9.09-25.5055-24.276-25.5055-12.587 0-24.177 10.2021-24.177 25.9057 0 16.6036 11.888 26.3058 25.376 26.3058 12.088 0 19.881-7.1016 22.379-15.6035z"/></g><path d="m63.7076 110.284c-2.8595 3.601-8.6574 1.628-8.7263-2.97l-1.0075-67.2513h45.2197c8.1905 0 12.7585 9.4601 7.6655 15.8747z" fill="url(#a)"/><path d="m63.7076 110.284c-2.8595 3.601-8.6574 1.628-8.7263-2.97l-1.0075-67.2513h45.2197c8.1905 0 12.7585 9.4601 7.6655 15.8747z" fill="url(#b)" fill-opacity=".2"/><path d="m45.317 2.07103c2.8595-3.6014 8.6575-1.628093 8.7264 2.96997l.4415 67.2512h-44.65377c-8.19075 0-12.75888-9.4601-7.66563-15.8747z" fill="#3ecf8e"/></svg>